<svg xmlns="http://www.w3.org/2000/svg" width="382.582" height="382.582" viewBox="0 0 382.582 382.582">
  <linearGradient id="a" x1="270.793" x2="111.79" y1="329.679" y2="54.277" gradientUnits="userSpaceOnUse">
    <stop offset="0" stop-color="#ffd479"/>
    <stop offset="1" stop-color="#ffeea6"/>
  </linearGradient>
  <circle cx="191.292" cy="191.977" r="158.977" fill="url(#a)"/>
  <path fill="#2D2D2D" d="M344.3 121.307a183.1 183.1 0 0 0-2.335-4.893 168.52 168.52 0 0 0-19.74-30.843C273.761 25.437 188.442 4.828 116.421 40.61c-10.355 5.145-19.937 11.195-28.714 18.04-61.779 48.137-83.302 134.642-47.1 207.503 41.357 83.219 142.335 117.171 225.554 75.813 28.834-14.323 51.75-35.81 67.661-61.228a167.782 167.782 0 0 0 13.856-27.415 168.624 168.624 0 0 0 9.813-35.736c5.044-31.682 1.094-65.11-13.191-96.28zm-82.585 211.714c-78.277 38.901-173.261 6.966-212.162-71.313C15.498 193.171 35.742 111.801 93.86 66.522c-28.247 45.101-33.083 103.415-7.657 154.567 38.893 78.278 133.875 110.204 212.153 71.313a158.733 158.733 0 0 0 27.005-16.976c-14.967 23.914-36.519 44.122-63.646 57.595z"/>
  <path fill="#94CE91" d="M317.467 173.986c0 5.707-5.373 10.333-12 10.333H128.443c-6.627 0-12-4.627-12-10.333v-10.333c0-5.707 5.373-10.334 12-10.334h177.023c6.627 0 12 4.627 12 10.334v10.333z"/>
  <path fill="#74AEDE" d="M331.586 119.066h-157.75c-6.631 0-12-4.64-12-10.34v-10.33c0-5.71 5.369-10.33 12-10.33h137.439c.42.5.83 1 1.24 1.51 1.32 1.63 2.609 3.3 3.869 4.99a167.686 167.686 0 0 1 15.202 24.5z"/>
  <path fill="#FFEEA6" d="M283.365 229.121v10.334c0 5.709-5.381 10.333-12 10.333H166.834c-6.619 0-12-4.624-12-10.333v-10.334c0-5.7 5.381-10.333 12-10.333h104.531c6.619 0 12 4.633 12 10.333z"/>
  <path fill="#F3777A" d="M345.586 218.786c-.16 1.26-.35 2.52-.551 3.779-.129.83-.27 1.671-.41 2.5-.01.07-.029.15-.039.221-.91 5.17-2.061 10.29-3.441 15.34-.84 3.08-1.77 6.13-2.779 9.16h-28.039c-6.641 0-12-4.62-12-10.33v-10.33c0-5.71 5.359-10.34 12-10.34h35.259z"/>
</svg>
