<?xml version="1.0" encoding="UTF-8"?>
<svg width="500px" height="500px" viewBox="0 0 500 500" version="1.1" xmlns="http://www.w3.org/2000/svg" xmlns:xlink="http://www.w3.org/1999/xlink">
    <!-- Generator: Sketch 53.2 (72643) - https://sketchapp.com -->
    <title>Square</title>
    <desc>Created with Sketch.</desc>
    <g id="Square" stroke="none" stroke-width="1" fill="none" fill-rule="evenodd">
        <g id="Group" transform="translate(1.000000, 1.000000)" fill-rule="nonzero">
            <path d="M80,0 L420,0 C464.182782,0 500,35.8172183 500,80 L500,420 C500,464.182782 464.182782,500 420.000002,500 L79.9999977,500 C35.8172183,500 0,464.182782 0,420.000002 L0,79.9999977 C0,35.8172183 35.8172183,0 80,0 Z" id="Path" fill="#2962FF"></path>
            <path d="M375.311221,450.797059 L375.228871,450.780589 C403.669347,450.309441 426.800746,427.727282 427.955075,399.306336 C429.109401,370.885392 407.885538,346.501725 379.576948,343.725692 L277.133648,162.852329 C262.145962,135.940376 233.208202,137.109746 222.7827,175.303638 C213.823028,211.471723 216.128826,245.54812 213.52657,286.72308 C213.50961,286.993657 213.320369,287.222549 213.0578,287.290066 C212.795235,287.357585 212.519052,287.248371 212.373669,287.019538 L120.915852,104.696815 C128.380155,98.8349765 132.74942,89.8779789 132.774239,80.3871197 C132.774242,63.604777 119.16946,50 102.387117,50 C85.604777,50 72,63.604777 72,80.3871197 C72,97.1694624 85.604777,110.774242 102.38712,110.774242 C103.820007,110.774242 104.989378,110.477782 106.142277,110.477782 C144.632629,209.445915 187.471056,324.916972 202.804613,351.548937 C213.230113,377.011531 248.821746,368.908298 249.694657,341.419897 L253.449812,197.011077 C253.449812,196.138167 254.602711,196.138167 254.899171,196.714617 L328.3553,371.494087 C323.98638,379.373296 321.71769,388.243871 321.767305,397.253141 C321.803606,426.809582 345.754784,450.760761 375.311223,450.797059 L375.311221,450.797059 Z" id="Path" fill="#FFFFFF"></path>
        </g>
    </g>
</svg>